<?xml version="1.0" encoding="UTF-8" standalone="no"?>
<!DOCTYPE svg PUBLIC "-//W3C//DTD SVG 1.1//EN" "http://www.w3.org/Graphics/SVG/1.1/DTD/svg11.dtd">
<svg width="100%" height="100%" viewBox="0 0 1024 1024" version="1.1" xmlns="http://www.w3.org/2000/svg" xmlns:xlink="http://www.w3.org/1999/xlink" xml:space="preserve" style="fill-rule:evenodd;clip-rule:evenodd;stroke-miterlimit:10;">
<style type="text/css">.fill-color{fill:#1c1917;}.stroke-color{stroke:#1c1917;fill:none;}@media (prefers-color-scheme:dark){.fill-color{fill:#f5f5f4;}.stroke-color{stroke:#f5f5f4;fill:none;}}</style>
<path class="stroke-color" d="M619.5,52C605.22,68.887 586.337,92.201 565.5,121C545.496,148.647 516.692,188.781 487.5,245C473.184,272.57 454.156,309.63 437.5,362C433.52,374.515 416.581,429.075 408.5,504C406.042,526.788 404.989,546.032 404.5,560L565.526,560C559.611,579.205 553.105,604.256 548.5,634C540.603,685.007 541.935,726.312 543.5,749C546.826,797.203 556.142,832.892 561.5,853C570.918,888.343 581.9,916.309 589.5,934C596.408,950.081 603.063,963.588 608.5,974" style="fill-rule:nonzero;stroke-width:34px;"/>
<g>
  <path class="fill-color" d="M173.32,428.98L243.52,212.98L288.621,212.98L358.821,428.98L326.32,428.98L261.621,231.88L269.82,231.88L205.821,428.98L173.32,428.98ZM209.721,380.28L209.721,350.88L322.521,350.88L322.521,380.28L209.721,380.28Z" style="fill-rule:nonzero;"/>
  <path class="fill-color" d="M594.52,429.28L594.52,213.28L625.922,213.28L625.922,314.08L716.32,213.28L755.32,213.28L659.822,318.681L762.321,429.28L722.121,429.28L625.922,326.08L625.922,429.28L594.52,429.28Z" style="fill-rule:nonzero;"/>
</g>
<path class="stroke-color" d="M416.542,750.922C427.908,750.895 450.639,750.842 467.642,749.745C485.166,748.614 503.782,746.867 521.686,744.138C540.763,741.231 562.827,737.172 582.099,732.3C600.807,727.57 620.256,721.102 637.314,714.903C653.33,709.083 669.361,702.209 684.449,695.108C699.234,688.149 713.776,680.616 727.84,672.296C742.094,663.862 756.997,654.163 769.974,644.507C782.476,635.205 797.96,621.307 805.702,614.358" style="stroke-width:34px;stroke-linecap:round;stroke-miterlimit:3;"/>
</svg>
